<?xml version="1.0" standalone="no"?>
<!DOCTYPE svg PUBLIC "-//W3C//DTD SVG 20010904//EN"
 "http://www.w3.org/TR/2001/REC-SVG-20010904/DTD/svg10.dtd">
<svg version="1.0" xmlns="http://www.w3.org/2000/svg"
 width="884.000000pt" height="884.000000pt" viewBox="0 0 884.000000 884.000000"
 preserveAspectRatio="xMidYMid meet">
<metadata>
Created by potrace 1.14, written by Peter Selinger 2001-2017
</metadata>
<g transform="translate(0.000000,884.000000) scale(0.100000,-0.100000)"
fill="#000000" stroke="none">
<path d="M7460 6115 c0 -54 0 -55 -30 -55 l-30 0 0 -235 0 -235 29 0 c29 0 30
-2 33 -49 l3 -49 56 32 c30 18 75 44 100 58 24 14 89 51 144 83 55 32 111 65
125 72 116 65 145 83 147 90 2 5 -106 72 -239 149 -133 76 -264 151 -290 167
l-48 27 0 -55z"/>
<path d="M1799 6038 c-5 -9 -52 -126 -104 -260 -53 -133 -100 -252 -105 -263
-5 -11 -64 -157 -130 -325 -66 -168 -125 -314 -130 -325 -5 -11 -102 -254
-215 -540 -113 -286 -212 -534 -220 -552 -8 -18 -11 -34 -7 -37 5 -3 141 -5
304 -5 l296 1 15 41 c9 23 45 123 81 221 36 99 69 182 75 185 5 3 204 6 442 6
l433 0 69 -190 c37 -105 72 -199 77 -210 4 -11 11 -28 14 -37 4 -15 33 -17
315 -17 l310 0 -18 47 c-98 248 -636 1594 -646 1617 -7 17 -21 50 -30 75 -10
25 -23 59 -30 75 -6 17 -25 62 -40 100 -27 69 -56 141 -129 320 l-37 90 -290
0 c-262 0 -292 -1 -300 -17z m430 -1008 l129 -355 -261 -3 c-143 -1 -262 -1
-264 1 -3 4 34 117 62 187 8 19 53 143 101 275 48 132 89 247 92 254 3 8 7 11
9 5 2 -5 61 -169 132 -364z"/>
<path d="M4320 6050 c-4 -3 -45 -97 -89 -210 -45 -113 -85 -214 -90 -225 -5
-11 -31 -74 -56 -140 -26 -66 -185 -464 -352 -885 -168 -421 -313 -786 -324
-812 l-18 -47 303 0 304 0 30 82 c17 45 55 147 84 227 l54 145 439 0 439 0 41
-110 c23 -61 61 -163 84 -227 l43 -117 310 0 c233 0 308 3 305 12 -73 184
-683 1711 -692 1732 -7 17 -45 109 -83 205 -38 96 -73 184 -77 195 -5 11 -9
22 -10 25 -1 3 -6 14 -10 25 -5 11 -18 45 -30 75 l-21 55 -288 0 c-158 0 -291
-2 -296 -5z m326 -756 c20 -54 53 -146 74 -204 21 -58 63 -174 94 -259 31 -84
56 -155 56 -157 0 -2 -119 -4 -265 -4 l-264 0 13 43 c12 40 71 201 101 277 7
19 44 119 81 223 37 103 68 186 70 184 2 -2 20 -48 40 -103z"/>
<path d="M6070 5803 l0 -253 23 -1 c12 0 174 0 360 -1 307 0 337 -1 338 -16 3
-118 -2 -1057 -6 -1087 -22 -134 -110 -222 -232 -230 -128 -8 -245 60 -361
209 -19 25 -25 28 -36 15 -38 -41 -306 -403 -306 -413 0 -20 130 -148 191
-189 107 -70 247 -122 384 -142 55 -8 239 -8 300 0 89 12 209 48 275 83 227
121 347 337 376 677 9 96 8 1584 0 1593 -4 4 -300 7 -657 7 l-649 0 0 -252z"/>
<path d="M7691 3468 c-92 -16 -125 -59 -122 -157 1 -48 67 -110 144 -135 73
-25 107 -55 107 -96 0 -38 -38 -79 -75 -81 -14 -1 -31 -2 -37 -3 -14 -2 -77 8
-121 19 -25 7 -27 5 -27 -28 l0 -34 62 -10 c159 -26 268 31 268 139 0 74 -33
109 -151 157 -43 18 -83 40 -89 50 -45 85 24 142 140 115 30 -7 58 -13 61 -14
5 0 29 45 29 54 0 5 -80 24 -115 28 -16 2 -50 0 -74 -4z"/>
<path d="M890 3460 c-4 -3 -7 -120 -7 -261 l1 -257 143 0 c79 0 143 3 144 7 0
3 2 14 4 24 5 26 -21 33 -128 31 l-98 -1 3 91 3 91 98 0 c101 0 120 7 110 44
-3 14 -20 16 -106 16 l-102 1 -3 73 c-2 43 1 77 7 80 6 4 55 6 110 6 90 -1
100 1 105 18 10 40 1 43 -140 42 -75 0 -139 -2 -144 -5z"/>
<path d="M1930 3460 c0 -4 8 -18 18 -31 10 -13 45 -67 79 -119 l60 -96 -83
-129 c-46 -72 -84 -132 -84 -135 0 -9 54 -10 66 -2 6 4 39 53 73 110 35 56 64
102 65 102 3 0 52 -77 99 -156 33 -55 40 -61 72 -62 40 -2 43 7 16 46 -34 48
-141 223 -141 230 0 4 34 59 75 122 41 63 75 118 75 121 0 6 -69 4 -73 -2 -2
-2 -29 -46 -61 -96 -32 -51 -59 -93 -61 -93 -1 0 -29 43 -60 95 -32 52 -60 95
-64 96 -31 6 -71 5 -71 -1z"/>
<path d="M3109 3466 c-1 -1 -2 -119 -3 -263 l-1 -262 32 1 c33 1 33 2 34 52 0
28 1 73 2 100 l2 49 55 3 c87 3 135 20 169 59 17 20 32 46 33 58 4 67 3 84 -6
107 -28 71 -76 92 -217 95 -55 1 -100 1 -100 1z m221 -84 c54 -41 47 -127 -12
-158 -17 -9 -55 -16 -86 -17 l-57 -2 -2 80 c-4 124 -4 123 69 119 41 -2 71
-10 88 -22z"/>
<path d="M4251 3461 c-4 -3 -8 -121 -7 -261 l1 -255 30 0 30 0 5 105 5 105 45
0 c51 1 52 0 127 -132 46 -81 47 -83 85 -83 21 0 38 2 38 4 0 3 -30 54 -66
115 -37 61 -65 113 -63 114 2 2 16 11 31 20 40 25 66 83 61 136 -8 100 -61
133 -216 136 -53 0 -101 -1 -106 -4z m197 -65 c39 -9 63 -52 55 -100 -9 -58
-41 -78 -130 -81 l-63 -2 0 97 0 97 53 -2 c28 -1 67 -5 85 -9z"/>
<path d="M5390 3204 l0 -261 147 1 c143 1 146 1 149 23 5 32 -18 39 -128 37
l-98 -2 -1 36 c-3 75 0 134 6 141 4 3 50 6 103 6 l97 0 3 30 3 31 -106 -1
c-58 0 -105 2 -106 5 -1 7 -1 112 0 135 1 19 8 20 114 20 l112 0 0 30 0 30
-147 0 -148 0 0 -261z"/>
<path d="M6544 3456 c-48 -21 -74 -65 -74 -126 0 -47 4 -56 38 -90 23 -23 61
-46 99 -60 85 -31 115 -59 111 -107 -6 -67 -78 -93 -188 -67 -73 18 -70 18
-70 -16 0 -38 24 -48 118 -53 123 -7 200 40 209 127 7 55 -10 100 -46 125 -14
10 -61 33 -105 51 -63 27 -81 38 -91 63 -16 39 -3 80 31 96 32 14 102 14 143
0 35 -12 45 -7 55 27 6 19 1 23 -38 33 -60 15 -154 13 -192 -3z"/>
</g>
</svg>
