<?xml version="1.0" standalone="no"?>
<!DOCTYPE svg PUBLIC "-//W3C//DTD SVG 20010904//EN"
 "http://www.w3.org/TR/2001/REC-SVG-20010904/DTD/svg10.dtd">
<svg version="1.0" xmlns="http://www.w3.org/2000/svg"
 width="896.000000pt" height="1024.000000pt" viewBox="0 0 896.000000 1024.000000"
 preserveAspectRatio="xMidYMid meet">
<metadata>
Created by potrace 1.16, written by Peter Selinger 2001-2019
</metadata>
<g transform="translate(0.000000,1024.000000) scale(0.100000,-0.100000)"
fill="#000000" stroke="none">
<path d="M4305 10221 c-166 -48 -315 -168 -393 -317 -65 -126 -72 -171 -72
-461 l0 -252 -37 -10 c-21 -5 -83 -21 -138 -35 -513 -131 -1006 -401 -1399
-768 -456 -426 -781 -995 -915 -1603 -46 -207 -62 -362 -71 -695 -15 -513 -34
-761 -80 -1046 -69 -431 -172 -769 -335 -1099 -143 -291 -288 -497 -542 -768
-184 -198 -218 -240 -258 -318 -47 -93 -65 -170 -65 -286 0 -114 17 -189 64
-288 83 -171 230 -292 414 -340 54 -13 476 -15 4002 -15 3526 0 3948 2 4002
15 184 48 331 169 414 340 47 99 64 174 64 288 0 200 -51 309 -236 507 -343
367 -488 568 -644 893 -149 311 -247 633 -314 1037 -51 307 -72 561 -81 990
-9 413 -31 609 -100 880 -138 548 -412 1028 -820 1435 -445 445 -955 722
-1617 879 l-28 6 0 253 c0 290 -7 335 -72 461 -79 152 -237 277 -404 320 -84
22 -259 20 -339 -3z m465 -1927 c982 -124 1781 -912 1919 -1893 13 -93 21
-225 25 -416 13 -588 56 -997 151 -1440 127 -592 362 -1144 665 -1566 l67 -94
-1558 -3 c-858 -1 -2260 -1 -3118 0 l-1558 3 67 94 c320 446 556 1019 684
1661 83 414 119 782 131 1345 5 191 13 323 26 416 101 717 559 1350 1214 1677
402 201 832 273 1285 216z"/>
<path d="M3200 1213 c0 -201 84 -454 218 -658 59 -90 247 -278 338 -338 227
-149 453 -217 724 -217 271 0 492 66 715 211 99 65 285 249 347 344 134 204
218 457 218 658 l0 67 -1280 0 -1280 0 0 -67z"/>
</g>
</svg>
